#!OML:ASF E:\VariousWalksJay\Project 1\Capture day 1\Session 1\Actor2.ASF
:FULLY-SPECIFIED
:DEGREES
940
root -0.968951 16.9713 21.265 184.174 -67.5474 -183.024
lowerback 5.77077 1.73456 -6.71405
upperback 7.80329 1.70624 -6.05649
thorax 4.90055 0.413964 -2.62966
lowerneck 1.94877 7.5052 1.19764
upperneck -0.105416 9.90635 11.8696
head -0.970915 4.70761 3.43944
rclavicle 9.54166e-015 2.22639e-014
rhumerus -63.191 12.5962 -124.513
rradius 59.0285
rwrist 18.0876
rhand -1.66159 8.22633
rfingers 7.12502
rthumb 23.9979 -20.2936
lclavicle 9.54166e-015 2.22639e-014
lhumerus -76.3698 -30.4056 132.868
lradius 56.4908
lwrist 14.0592
lhand -11.8128 2.66021
lfingers 7.12502
lthumb 14.2373 32.1522
rfemur -51.3356 -5.4658 10.9297
rtibia 58.0179
rfoot -24.7274 14.4989
rtoes -31.6546
lfemur -12.0476 14.9307 -32.4293
ltibia 32.6102
lfoot -20.3401 12.605
ltoes -1.04682
941
root -1.01261 16.9505 21.2211 182.692 -68.467 -181.072
lowerback 5.18228 1.56211 -5.65624
upperback 7.66352 1.60403 -5.81323
thorax 5.09468 0.434833 -2.94418
lowerneck 1.92063 7.3015 1.14981
upperneck -0.00750987 9.62192 11.9243
head -0.923514 4.57314 3.47746
rclavicle -2.54444e-014 9.22361e-014
rhumerus -63.1989 12.4953 -124.482
rradius 59.1092
rwrist 17.6729
rhand -0.995591 8.55604
rfingers 7.12502
rthumb 24.6364 -19.8783
lclavicle -2.54444e-014 9.22361e-014
lhumerus -76.4932 -30.3574 132.887
lradius 56.5882
lwrist 14.0706
lhand -11.8423 2.76826
lfingers 7.12502
lthumb 14.2089 32.2623
rfemur -48.8164 -4.821 11.6531
rtibia 57.9093
rfoot -22.5359 16.1613
rtoes -29.8858
lfemur -12.4336 14.5291 -31.5664
ltibia 33.2769
lfoot -21.0794 12.3684
ltoes -0.674164
942
root -1.05693 16.9265 21.1757 181.251 -69.4415 -179.193
lowerback 4.59396 1.39814 -4.68454
upperback 7.5309 1.49228 -5.58305
thorax 5.29559 0.445107 -3.22971
lowerneck 1.91131 7.08758 1.08878
upperneck 0.0677394 9.32732 11.9828
head -0.886693 4.43202 3.51817
rclavicle 7.95139e-016 -7.95139e-015
rhumerus -63.1983 12.3811 -124.447
rradius 59.1864
rwrist 17.367
rhand -0.55321 8.70361
rfingers 7.12502
rthumb 25.0604 -19.6722
lclavicle 7.95139e-016 -7.95139e-015
lhumerus -76.6239 -30.3272 132.918
lradius 56.6921
lwrist 14.0642
lhand -11.87 2.88944
lfingers 7.12502
lthumb 14.1823 32.3853
rfemur -46.2643 -4.12691 12.3321
rtibia 57.5612
rfoot -19.7433 17.8469
rtoes -27.2172
lfemur -12.842 14.1523 -30.7802
ltibia 34.0148
lfoot -21.8796 12.0839
ltoes -0.361177
943
root -1.1022 16.8997 21.1289 179.807 -70.4717 -177.333
lowerback 4.00341 1.23664 -3.7749
upperback 7.40013 1.36586 -5.36786
thorax 5.49875 0.444122 -3.50093
lowerneck 1.91231 6.86567 1.01072
upperneck 0.1355 9.02321 12.0553
head -0.854804 4.2853 3.56644
rclavicle 3.97569e-015 1.11319e-014
rhumerus -63.1972 12.2525 -124.42
rradius 59.2592
rwrist 17.1386
rhand -0.253789 8.73691
rfingers 7.12502
rthumb 25.3473 -19.5985
lclavicle 3.97569e-015 1.11319e-014
lhumerus -76.7612 -30.3065 132.955
lradius 56.7957
lwrist 14.0398
lhand -11.8923 3.01592
lfingers 7.12502
lthumb 14.1608 32.5133
rfemur -43.6858 -3.3866 12.9991
rtibia 56.9358
rfoot -16.5918 19.4064
rtoes -23.1527
lfemur -13.2252 13.8147 -30.0541
ltibia 34.7092
lfoot -22.6738 11.7429
ltoes -0.0830133
944
root -1.1491 16.8706 21.0813 178.416 -71.5756 -175.574
lowerback 3.42714 1.0659 -2.95901
upperback 7.28078 1.20905 -5.17264
thorax 5.70315 0.422 -3.74565
lowerneck 1.91545 6.64267 0.900684
upperneck 0.204177 8.71746 12.1436
head -0.824878 4.13768 3.62595
rclavicle -7.95139e-016 1.74931e-014
rhumerus -63.2113 12.14 -124.414
rradius 59.3228
rwrist 16.9564
rhand -0.0970098 8.70388
rfingers 7.12502
rthumb 25.4975 -19.6102
lclavicle -7.95139e-016 1.74931e-014
lhumerus -76.8797 -30.2782 132.987
lradius 56.8956
lwrist 13.9952
lhand -11.906 3.1469
lfingers 7.12502
lthumb 14.1476 32.6452
rfemur -41.0782 -2.63341 13.6196
rtibia 56.0469
rfoot -13.4953 20.7322
rtoes -17.5482
lfemur -13.5432 13.5381 -29.4196
ltibia 35.3366
lfoot -23.4466 11.3276
ltoes 0.156609
945
root -1.19727 16.8401 21.0327 177.067 -72.751 -173.897
lowerback 2.86604 0.883129 -2.24412
upperback 7.168 1.02086 -4.99252
thorax 5.90173 0.378042 -3.95447
lowerneck 1.92118 6.41856 0.75608
upperneck 0.278948 8.40957 12.2429
head -0.794906 3.98925 3.69574
rclavicle -4.53229e-014 1.27222e-014
rhumerus -63.2657 12.0687 -124.443
rradius 59.3811
rwrist 16.8501
rhand -0.133897 8.62248
rfingers 7.12502
rthumb 25.4621 -19.6966
lclavicle -4.53229e-014 1.27222e-014
lhumerus -76.9848 -30.2356 133.027
lradius 56.9891
lwrist 13.9346
lhand -11.9149 3.27798
lfingers 7.12502
lthumb 14.139 32.7769
rfemur -38.4884 -1.86348 14.2021
rtibia 54.9135
rfoot -11.2838 21.3537
rtoes -11.9378
lfemur -13.8039 13.326 -28.87
ltibia 35.893
lfoot -24.1856 10.8269
ltoes 0.378102
946
root -1.24677 16.81 20.9841 175.495 -73.9711 -172.015
lowerback 2.31772 0.704358 -1.53235
upperback 7.05219 0.825285 -4.82025
thorax 6.08795 0.330196 -4.17399
lowerneck 1.95097 6.18035 0.614759
upperneck 0.349693 8.08376 12.3522
head -0.768801 3.83056 3.76827
rclavicle -1.74931e-014 -2.54444e-014
rhumerus -63.3278 11.9711 -124.478
rradius 59.4588
rwrist 16.6793
rhand -0.0757243 8.53233
rfingers 7.12502
rthumb 25.5178 -19.7788
lclavicle -1.74931e-014 -2.54444e-014
lhumerus -77.1302 -30.2072 133.098
lradius 57.071
lwrist 13.8605
lhand -11.909 3.39088
lfingers 7.12502
lthumb 14.1447 32.8894
rfemur -35.9876 -1.07849 14.8481
rtibia 53.5644
rfoot -10.2773 21.4681
rtoes -6.51313
lfemur -14.0179 13.163 -28.3178
ltibia 36.378
lfoot -24.8797 10.2485
ltoes 0.63643
